<?xml version="1.0" encoding="UTF-8"?>
<svg id="Layer_2" data-name="Layer 2" xmlns="http://www.w3.org/2000/svg" viewBox="0 0 314.54 313.76">
  <defs>
    <style>
      .cls-1 {
        fill: none;
        stroke: #b41f24;
        stroke-linecap: round;
        stroke-miterlimit: 10;
        stroke-width: 6px;
      }

      .cls-2 {
        font-family: DynaPuff-SemiBold, DynaPuff;
        font-size: 18px;
        font-variation-settings: 'wght' 600, 'wdth' 100;
        font-weight: 600;
      }

      .cls-2, .cls-3 {
        fill: #b41f24;
      }

      .cls-3, .cls-4 {
        stroke-width: 0px;
      }

      .cls-4 {
        fill: #fff;
      }
    </style>
  </defs>
  <path class="cls-4" d="M147.5,82.7l-60.03,44.99c-4.1,3.08-6.52,7.9-6.52,13.03v70.48c0,9,7.29,16.29,16.29,16.29h120.06c9,0,16.29-7.29,16.29-16.29v-70.48c0-5.13-2.42-9.96-6.52-13.03l-60.03-44.99c-5.79-4.34-13.75-4.34-19.53,0Z"/>
  <g>
    <path class="cls-3" d="M163.72,183.26l8-9.92c4.09-5.07.48-12.63-6.04-12.63h-16c-6.52,0-10.13,7.56-6.04,12.63l8,9.92c3.11,3.85,8.97,3.85,12.08,0Z"/>
    <g>
      <path class="cls-1" d="M106.23,186.7c2.16,7.42,7.15,13.41,14.68,15.84,14.31,4.98,32.62.19,36.77-15.84"/>
      <path class="cls-1" d="M157.68,186.7c2.16,7.42,7.15,13.41,14.68,15.84,14.31,4.98,32.62.19,36.77-15.84"/>
    </g>
  </g>
  <text class="cls-2" transform="translate(91.41 148.11)"><tspan x="0" y="0">Sniff and Seek</tspan></text>
</svg>